<svg width="14" height="16" viewBox="0 0 14 16" fill="none" xmlns="http://www.w3.org/2000/svg">
<path fill-rule="evenodd" clip-rule="evenodd" d="M2 2.5C2 2.22386 2.22386 2 2.5 2H11.5C11.7761 2 12 2.22386 12 2.5V13.5C12 13.7761 11.7761 14 11.5 14H2.5C2.22386 14 2 13.7761 2 13.5V2.5ZM2.5 0C1.11929 0 0 1.11929 0 2.5V13.5C0 14.8807 1.11929 16 2.5 16H11.5C12.8807 16 14 14.8807 14 13.5V2.5C14 1.11929 12.8807 0 11.5 0H2.5ZM4 4C3.44772 4 3 4.44772 3 5C3 5.55228 3.44772 6 4 6H5C5.55228 6 6 5.55228 6 5C6 4.44772 5.55228 4 5 4H4ZM4 7C3.44772 7 3 7.44772 3 8C3 8.55228 3.44772 9 4 9H10C10.5523 9 11 8.55228 11 8C11 7.44772 10.5523 7 10 7H4ZM3 11C3 10.4477 3.44772 10 4 10H10C10.5523 10 11 10.4477 11 11C11 11.5523 10.5523 12 10 12H4C3.44772 12 3 11.5523 3 11Z" fill="currentColor"/>
</svg>
